<mxfile host="app.diagrams.net" agent="Mozilla/5.0 (Macintosh; Intel Mac OS X 10_15_7) AppleWebKit/605.1.15 (KHTML, like Gecko) Version/18.3.1 Safari/605.1.15" version="26.1.1">
  <diagram name="Page-1" id="kCV4FMNAXj6-lOsabvb9">
    <mxGraphModel dx="852" dy="727" grid="1" gridSize="10" guides="1" tooltips="1" connect="1" arrows="1" fold="1" page="1" pageScale="1" pageWidth="850" pageHeight="1100" math="0" shadow="0" adaptiveColors="simple">
      <root>
        <mxCell id="0" />
        <mxCell id="1" parent="0" />
        <mxCell id="o_lin4aIEjJmerfPU7aZ-24" value="" style="rounded=0;whiteSpace=wrap;html=1;glass=0;strokeColor=none;align=center;verticalAlign=middle;fontFamily=Helvetica;fontSize=20;fontColor=#46495D;fontStyle=0;labelBorderColor=none;fillColor=#B2C9AB;labelBackgroundColor=none;" parent="1" vertex="1">
          <mxGeometry x="10" y="330" width="760" height="490" as="geometry" />
        </mxCell>
        <mxCell id="o_lin4aIEjJmerfPU7aZ-1" style="edgeStyle=orthogonalEdgeStyle;rounded=0;orthogonalLoop=1;jettySize=auto;html=1;exitX=0.5;exitY=1;exitDx=0;exitDy=0;entryX=0.5;entryY=0;entryDx=0;entryDy=0;fontFamily=Helvetica;fontSize=20;fontColor=default;fontStyle=0;labelBorderColor=none;strokeColor=#788AA3;labelBackgroundColor=none;fillColor=#647687;" parent="1" source="o_lin4aIEjJmerfPU7aZ-3" target="o_lin4aIEjJmerfPU7aZ-4" edge="1">
          <mxGeometry relative="1" as="geometry">
            <mxPoint x="470" y="470" as="targetPoint" />
          </mxGeometry>
        </mxCell>
        <mxCell id="o_lin4aIEjJmerfPU7aZ-2" style="edgeStyle=orthogonalEdgeStyle;rounded=0;orthogonalLoop=1;jettySize=auto;html=1;exitX=0.5;exitY=1;exitDx=0;exitDy=0;fontFamily=Helvetica;fontSize=20;fontColor=default;fontStyle=0;labelBorderColor=none;strokeColor=#788AA3;labelBackgroundColor=none;fillColor=#647687;" parent="1" source="o_lin4aIEjJmerfPU7aZ-3" target="o_lin4aIEjJmerfPU7aZ-17" edge="1">
          <mxGeometry relative="1" as="geometry" />
        </mxCell>
        <mxCell id="o_lin4aIEjJmerfPU7aZ-3" value="if_view!" style="rounded=1;whiteSpace=wrap;html=1;glass=0;strokeColor=#314354;align=center;verticalAlign=middle;fontFamily=Helvetica;fontSize=20;fontStyle=0;labelBorderColor=none;fillColor=#647687;fontColor=#ffffff;labelBackgroundColor=none;" parent="1" vertex="1">
          <mxGeometry x="510" y="370" width="120" height="60" as="geometry" />
        </mxCell>
        <mxCell id="o_lin4aIEjJmerfPU7aZ-4" value="Circle" style="swimlane;fontStyle=0;childLayout=stackLayout;horizontal=1;startSize=30;horizontalStack=0;resizeParent=1;resizeParentMax=0;resizeLast=0;collapsible=1;marginBottom=0;whiteSpace=wrap;html=1;rounded=1;glass=0;strokeColor=#314354;align=center;verticalAlign=middle;fontFamily=Helvetica;fontSize=20;fontColor=#ffffff;labelBorderColor=none;fillColor=#647687;swimlaneFillColor=#FFFFFF;labelBackgroundColor=none;" parent="1" vertex="1">
          <mxGeometry x="420" y="470" width="140" height="90" as="geometry" />
        </mxCell>
        <mxCell id="o_lin4aIEjJmerfPU7aZ-5" value="origin" style="text;strokeColor=none;fillColor=none;align=left;verticalAlign=middle;spacingLeft=4;spacingRight=4;overflow=hidden;points=[[0,0.5],[1,0.5]];portConstraint=eastwest;rotatable=0;whiteSpace=wrap;html=1;fontFamily=Helvetica;fontSize=20;fontColor=#46495D;fontStyle=0;labelBorderColor=none;labelBackgroundColor=none;" parent="o_lin4aIEjJmerfPU7aZ-4" vertex="1">
          <mxGeometry y="30" width="140" height="30" as="geometry" />
        </mxCell>
        <mxCell id="o_lin4aIEjJmerfPU7aZ-6" value="radius" style="text;strokeColor=none;fillColor=none;align=left;verticalAlign=middle;spacingLeft=4;spacingRight=4;overflow=hidden;points=[[0,0.5],[1,0.5]];portConstraint=eastwest;rotatable=0;whiteSpace=wrap;html=1;fontFamily=Helvetica;fontSize=20;fontColor=#46495D;fontStyle=0;labelBorderColor=none;labelBackgroundColor=none;" parent="o_lin4aIEjJmerfPU7aZ-4" vertex="1">
          <mxGeometry y="60" width="140" height="30" as="geometry" />
        </mxCell>
        <mxCell id="QQNYnJXrrWhXzp8zIt1v-16" style="edgeStyle=orthogonalEdgeStyle;rounded=0;orthogonalLoop=1;jettySize=auto;html=1;exitX=0.5;exitY=1;exitDx=0;exitDy=0;fontFamily=Helvetica;fontSize=20;fontColor=default;fontStyle=0;labelBorderColor=none;strokeColor=#314354;labelBackgroundColor=none;fillColor=#647687;" parent="1" source="QQNYnJXrrWhXzp8zIt1v-6" target="QQNYnJXrrWhXzp8zIt1v-19" edge="1">
          <mxGeometry relative="1" as="geometry" />
        </mxCell>
        <mxCell id="dxBHRb3iMDb-qYMzToc2-3" style="edgeStyle=orthogonalEdgeStyle;rounded=0;orthogonalLoop=1;jettySize=auto;html=1;exitX=0.5;exitY=1;exitDx=0;exitDy=0;entryX=0.5;entryY=0;entryDx=0;entryDy=0;" edge="1" parent="1" source="QQNYnJXrrWhXzp8zIt1v-6" target="QQNYnJXrrWhXzp8zIt1v-7">
          <mxGeometry relative="1" as="geometry" />
        </mxCell>
        <mxCell id="QQNYnJXrrWhXzp8zIt1v-6" value="if_view!" style="rounded=1;whiteSpace=wrap;html=1;fillColor=#647687;strokeColor=#314354;fontStyle=0;fontSize=20;labelBorderColor=none;glass=0;labelBackgroundColor=none;fontColor=#ffffff;" parent="1" vertex="1">
          <mxGeometry x="90" y="485" width="130" height="60" as="geometry" />
        </mxCell>
        <mxCell id="QQNYnJXrrWhXzp8zIt1v-7" value="EmptyView" style="rounded=1;whiteSpace=wrap;html=1;glass=0;strokeColor=#314354;align=center;verticalAlign=middle;fontFamily=Helvetica;fontSize=20;fontColor=#ffffff;fontStyle=0;labelBorderColor=none;fillColor=#647687;labelBackgroundColor=none;" parent="1" vertex="1">
          <mxGeometry x="160" y="605" width="120" height="60" as="geometry" />
        </mxCell>
        <mxCell id="o_lin4aIEjJmerfPU7aZ-17" value="EmptyView" style="swimlane;fontStyle=0;childLayout=stackLayout;horizontal=1;startSize=30;horizontalStack=0;resizeParent=1;resizeParentMax=0;resizeLast=0;collapsible=1;marginBottom=0;whiteSpace=wrap;html=1;rounded=1;glass=0;strokeColor=#B3B3B3;align=center;verticalAlign=middle;fontFamily=Helvetica;fontSize=20;labelBorderColor=none;fillColor=#f5f5f5;swimlaneFillColor=#FFFFFF;fontColor=#CCCCCC;labelBackgroundColor=none;" parent="1" vertex="1">
          <mxGeometry x="590" y="470" width="140" height="60" as="geometry" />
        </mxCell>
        <mxCell id="QQNYnJXrrWhXzp8zIt1v-19" value="Circle" style="rounded=1;whiteSpace=wrap;html=1;glass=0;strokeColor=#314354;align=center;verticalAlign=middle;fontFamily=Helvetica;fontSize=20;fontColor=#ffffff;fontStyle=0;labelBorderColor=none;fillColor=#647687;labelBackgroundColor=none;" parent="1" vertex="1">
          <mxGeometry x="50" y="605" width="80" height="60" as="geometry" />
        </mxCell>
        <mxCell id="o_lin4aIEjJmerfPU7aZ-27" value="" style="shape=flexArrow;endArrow=classic;html=1;rounded=0;fontFamily=Helvetica;fontSize=20;fontColor=default;fontStyle=0;labelBorderColor=none;endWidth=39.333333333333336;endSize=12.776666666666666;width=27.333333333333332;labelBackgroundColor=none;fillColor=#647687;strokeColor=#314354;entryX=0.54;entryY=0.58;entryDx=0;entryDy=0;entryPerimeter=0;" parent="1" edge="1">
          <mxGeometry width="50" height="50" relative="1" as="geometry">
            <mxPoint x="320" y="580.1999999999999" as="sourcePoint" />
            <mxPoint x="380" y="579.9999999999999" as="targetPoint" />
            <Array as="points">
              <mxPoint x="340" y="580.1999999999999" />
            </Array>
          </mxGeometry>
        </mxCell>
        <mxCell id="dxBHRb3iMDb-qYMzToc2-4" style="edgeStyle=orthogonalEdgeStyle;rounded=0;orthogonalLoop=1;jettySize=auto;html=1;exitX=0.5;exitY=1;exitDx=0;exitDy=0;entryX=0.5;entryY=0;entryDx=0;entryDy=0;fontFamily=Helvetica;fontSize=20;fontColor=default;fontStyle=0;labelBorderColor=none;strokeColor=#788AA3;labelBackgroundColor=none;fillColor=#647687;" edge="1" source="dxBHRb3iMDb-qYMzToc2-6" target="dxBHRb3iMDb-qYMzToc2-7" parent="1">
          <mxGeometry relative="1" as="geometry">
            <mxPoint x="465" y="670" as="targetPoint" />
          </mxGeometry>
        </mxCell>
        <mxCell id="dxBHRb3iMDb-qYMzToc2-5" style="edgeStyle=orthogonalEdgeStyle;rounded=0;orthogonalLoop=1;jettySize=auto;html=1;exitX=0.5;exitY=1;exitDx=0;exitDy=0;fontFamily=Helvetica;fontSize=20;fontColor=default;fontStyle=0;labelBorderColor=none;strokeColor=#788AA3;labelBackgroundColor=none;fillColor=#647687;" edge="1" source="dxBHRb3iMDb-qYMzToc2-6" target="dxBHRb3iMDb-qYMzToc2-10" parent="1">
          <mxGeometry relative="1" as="geometry" />
        </mxCell>
        <mxCell id="dxBHRb3iMDb-qYMzToc2-6" value="if_view!" style="rounded=1;whiteSpace=wrap;html=1;glass=0;strokeColor=#314354;align=center;verticalAlign=middle;fontFamily=Helvetica;fontSize=20;fontStyle=0;labelBorderColor=none;fillColor=#647687;fontColor=#ffffff;labelBackgroundColor=none;" vertex="1" parent="1">
          <mxGeometry x="505" y="600" width="120" height="60" as="geometry" />
        </mxCell>
        <mxCell id="dxBHRb3iMDb-qYMzToc2-7" value="Circle" style="swimlane;fontStyle=0;childLayout=stackLayout;horizontal=1;startSize=30;horizontalStack=0;resizeParent=1;resizeParentMax=0;resizeLast=0;collapsible=1;marginBottom=0;whiteSpace=wrap;html=1;rounded=1;glass=0;strokeColor=#B3B3B3;align=center;verticalAlign=middle;fontFamily=Helvetica;fontSize=20;fontColor=#CCCCCC;labelBorderColor=none;fillColor=#f5f5f5;swimlaneFillColor=#FFFFFF;labelBackgroundColor=none;" vertex="1" parent="1">
          <mxGeometry x="415" y="700" width="140" height="90" as="geometry" />
        </mxCell>
        <mxCell id="dxBHRb3iMDb-qYMzToc2-8" value="origin" style="text;strokeColor=none;fillColor=none;align=left;verticalAlign=middle;spacingLeft=4;spacingRight=4;overflow=hidden;points=[[0,0.5],[1,0.5]];portConstraint=eastwest;rotatable=0;whiteSpace=wrap;html=1;fontFamily=Helvetica;fontSize=20;fontColor=#CCCCCC;fontStyle=0;labelBorderColor=none;labelBackgroundColor=none;" vertex="1" parent="dxBHRb3iMDb-qYMzToc2-7">
          <mxGeometry y="30" width="140" height="30" as="geometry" />
        </mxCell>
        <mxCell id="dxBHRb3iMDb-qYMzToc2-9" value="radius" style="text;strokeColor=none;fillColor=none;align=left;verticalAlign=middle;spacingLeft=4;spacingRight=4;overflow=hidden;points=[[0,0.5],[1,0.5]];portConstraint=eastwest;rotatable=0;whiteSpace=wrap;html=1;fontFamily=Helvetica;fontSize=20;fontColor=#CCCCCC;fontStyle=0;labelBorderColor=none;labelBackgroundColor=none;" vertex="1" parent="dxBHRb3iMDb-qYMzToc2-7">
          <mxGeometry y="60" width="140" height="30" as="geometry" />
        </mxCell>
        <mxCell id="dxBHRb3iMDb-qYMzToc2-10" value="EmptyView" style="swimlane;fontStyle=0;childLayout=stackLayout;horizontal=1;startSize=30;horizontalStack=0;resizeParent=1;resizeParentMax=0;resizeLast=0;collapsible=1;marginBottom=0;whiteSpace=wrap;html=1;rounded=1;glass=0;strokeColor=#314354;align=center;verticalAlign=middle;fontFamily=Helvetica;fontSize=20;labelBorderColor=none;fillColor=#647687;swimlaneFillColor=#FFFFFF;fontColor=#ffffff;labelBackgroundColor=none;" vertex="1" parent="1">
          <mxGeometry x="585" y="700" width="140" height="60" as="geometry" />
        </mxCell>
        <mxCell id="dxBHRb3iMDb-qYMzToc2-11" value="" style="endArrow=none;dashed=1;html=1;dashPattern=8 8;strokeWidth=2;rounded=0;" edge="1" parent="1">
          <mxGeometry width="50" height="50" relative="1" as="geometry">
            <mxPoint x="410" y="580" as="sourcePoint" />
            <mxPoint x="740" y="580" as="targetPoint" />
          </mxGeometry>
        </mxCell>
      </root>
    </mxGraphModel>
  </diagram>
</mxfile>
